#!OML:ASF G:\JayActor3\Patient Classification 1\Patient 1\Session 5\male.ASF
:FULLY-SPECIFIED
:DEGREES
833
root 28.7491 15.5117 -5.32215 710.532 92.7723 695.232
lowerback 37.1439 -3.19795 2.40404
upperback 9.81169 -2.03403 -1.94488
thorax -7.63073 -0.399218 -2.61365
lowerneck 1.39675 -0.84275 1.24296
upperneck -22.8492 0.101015 2.54802
head -7.21426 0.0431133 0.573483
rclavicle -2.5842e-015 1.31198e-014
rhumerus -29.4905 2.7348 -88.8507
rradius 42.0168
rwrist -0.176313
rhand -23.2656 -11.5739
rfingers 7.12502
rthumb 3.1866 -41.5298
lclavicle -2.5842e-015 1.31198e-014
lhumerus -32.2743 1.46584 82.0335
lradius 38.1269
lwrist 23.1946
lhand -18.1298 15.2197
lfingers 7.12502
lthumb 8.14509 45.0427
rfemur -58.0544 -6.50241 25.3604
rtibia 83.9984
rfoot 7.10876 -14.2161
rtoes -3.50019
lfemur -71.7262 14.3392 -34.3401
ltibia 57.8062
lfoot 14.0617 -6.51228
ltoes -28.8156
834
root 28.8909 15.5211 -5.33951 709.853 92.6584 694.461
lowerback 36.9549 -3.15642 2.41708
upperback 9.80612 -1.99361 -1.9467
thorax -7.57024 -0.384439 -2.64003
lowerneck 1.38027 -0.842103 1.24228
upperneck -22.8387 0.100019 2.5423
head -7.20788 0.0432872 0.571746
rclavicle 9.93923e-015 1.88845e-014
rhumerus -29.4932 2.69791 -88.8145
rradius 41.9456
rwrist -0.115643
rhand -23.2587 -11.5615
rfingers 7.12502
rthumb 3.19325 -41.5173
lclavicle 9.93923e-015 1.88845e-014
lhumerus -32.2892 1.5078 82.0312
lradius 37.9138
lwrist 23.065
lhand -18.2629 14.9359
lfingers 7.12502
lthumb 8.01659 44.7639
rfemur -57.5797 -6.5643 25.281
rtibia 83.9334
rfoot 7.22488 -14.2963
rtoes -3.41604
lfemur -71.7846 14.5783 -35.1753
ltibia 55.7327
lfoot 16.2959 -6.44182
ltoes -28.1803
835
root 29.034 15.5306 -5.35813 708.95 92.526 693.465
lowerback 36.7581 -3.10958 2.42448
upperback 9.80096 -1.94961 -1.95155
thorax -7.50604 -0.36807 -2.66802
lowerneck 1.35982 -0.840832 1.24731
upperneck -22.8234 0.0990048 2.53182
head -7.19924 0.0433535 0.56747
rclavicle -2.98177e-015 -6.16232e-015
rhumerus -29.4996 2.66159 -88.7789
rradius 41.8954
rwrist -0.0875912
rhand -23.2345 -11.5582
rfingers 7.12502
rthumb 3.21665 -41.5137
lclavicle -2.98177e-015 -6.16232e-015
lhumerus -32.3025 1.54303 82.0315
lradius 37.7137
lwrist 22.9312
lhand -18.4317 14.6022
lfingers 7.12502
lthumb 7.85371 44.4364
rfemur -57.0981 -6.61619 25.19
rtibia 83.8631
rfoot 7.34287 -14.3752
rtoes -3.3063
lfemur -71.8371 14.8418 -36.0252
ltibia 53.7949
lfoot 18.4694 -6.23383
ltoes -27.3374
836
root 29.1785 15.5394 -5.37804 707.847 92.3746 692.27
lowerback 36.5591 -3.05885 2.43018
upperback 9.79482 -1.90216 -1.95915
thorax -7.44163 -0.35019 -2.69922
lowerneck 1.33718 -0.840284 1.25352
upperneck -22.8006 0.0962602 2.52073
head -7.18776 0.0424141 0.562907
rclavicle 1.5704e-014 1.76918e-014
rhumerus -29.515 2.63062 -88.7451
rradius 41.8644
rwrist -0.0961387
rhand -23.211 -11.5527
rfingers 7.12502
rthumb 3.23928 -41.5079
lclavicle 1.5704e-014 1.76918e-014
lhumerus -32.3204 1.57577 82.0312
lradius 37.5414
lwrist 22.8073
lhand -18.5947 14.284
lfingers 7.12502
lthumb 7.69636 44.1239
rfemur -56.6062 -6.659 25.0914
rtibia 83.793
rfoot 7.46777 -14.4497
rtoes -3.08793
lfemur -71.8879 15.1292 -36.8814
ltibia 52.0325
lfoot 20.4795 -5.8534
ltoes -26.4159
837
root 29.3246 15.5465 -5.39924 706.454 92.2086 690.79
lowerback 36.3617 -3.00584 2.4314
upperback 9.7885 -1.85368 -1.96877
thorax -7.37747 -0.331806 -2.73043
lowerneck 1.31451 -0.838902 1.26851
upperneck -22.7756 0.0927393 2.49805
head -7.17558 0.0412309 0.553134
rclavicle 1.05356e-014 -8.54774e-015
rhumerus -29.5376 2.60535 -88.7126
rradius 41.8522
rwrist -0.129056
rhand -23.1916 -11.5509
rfingers 7.12502
rthumb 3.25811 -41.5058
lclavicle 1.05356e-014 -8.54774e-015
lhumerus -32.3409 1.61162 82.0289
lradius 37.4026
lwrist 22.7057
lhand -18.7236 14.0308
lfingers 7.12502
lthumb 7.57193 43.8753
rfemur -56.1053 -6.69899 24.9821
rtibia 83.7315
rfoot 7.59299 -14.5212
rtoes -2.72295
lfemur -71.9411 15.4322 -37.7373
ltibia 50.4808
lfoot 22.233 -5.33272
ltoes -25.6318
